HIERARCHY
ROOT Hips
{
	OFFSET 0.000000 0.000000 0.000000 
	CHANNELS 6 Xposition Yposition Zposition Zrotation Yrotation Xrotation
	JOINT LeftUpLeg
	{
		OFFSET 1.363060 -1.794630 0.839290 
		CHANNELS 3 Zrotation Yrotation Xrotation
		JOINT LeftLeg
		{
			OFFSET 2.448110 -6.726130 0.000000 
			CHANNELS 3 Zrotation Yrotation Xrotation
			JOINT LeftFoot
			{
				OFFSET 2.562200 -7.039590 0.000000 
				CHANNELS 3 Zrotation Yrotation Xrotation
				JOINT LeftToeBase
				{
					OFFSET 0.157640 -0.433110 2.322550 
					CHANNELS 3 Zrotation Yrotation Xrotation
					End Site
					{
						OFFSET 0.000000 0.000000 0.000000 
					}
				}
			}
		}
	}
	JOINT RightUpLeg
	{
		OFFSET -1.305520 -1.794630 0.839290 
		CHANNELS 3 Zrotation Yrotation Xrotation
		JOINT RightLeg
		{
			OFFSET -2.542530 -6.985550 0.000000 
			CHANNELS 3 Zrotation Yrotation Xrotation
			JOINT RightFoot
			{
				OFFSET -2.568260 -7.056230 0.000000 
				CHANNELS 3 Zrotation Yrotation Xrotation
				JOINT RightToeBase
				{
					OFFSET -0.164730 -0.452590 2.363150 
					CHANNELS 3 Zrotation Yrotation Xrotation
					End Site
					{
						OFFSET 0.000000 0.000000 0.000000 
					}
				}
			}
		}
	}
	JOINT Spine
	{
		OFFSET 0.028270 2.035590 -0.193380 
		CHANNELS 3 Zrotation Yrotation Xrotation
		JOINT Spine1
		{
			OFFSET 0.056720 2.048850 -0.042750 
			CHANNELS 3 Zrotation Yrotation Xrotation
			JOINT Neck1
			{
				OFFSET -0.054170 1.746240 0.172020 
				CHANNELS 3 Zrotation Yrotation Xrotation
				JOINT Head
				{
					OFFSET 0.104070 1.761360 -0.123970 
					CHANNELS 3 Zrotation Yrotation Xrotation
					End Site
					{
						OFFSET 0.000000 0.000000 0.000000 
					}
				}
			}
			JOINT LeftArm
			{
				OFFSET 3.362410 1.200890 -0.311210 
				CHANNELS 3 Zrotation Yrotation Xrotation
				JOINT LeftForeArm
				{
					OFFSET 4.983000 -0.000000 -0.000000 
					CHANNELS 3 Zrotation Yrotation Xrotation
					JOINT LeftHand
					{
						OFFSET 3.483560 -0.000000 -0.000000 
						CHANNELS 3 Zrotation Yrotation Xrotation
						JOINT LeftHandIndex1
						{
							OFFSET 0.715260 -0.000000 -0.000000 
							CHANNELS 3 Zrotation Yrotation Xrotation
							End Site
							{
								OFFSET 0.000000 0.000000 0.000000 
							}
						}
					}
				}
			}
			JOINT RightArm
			{
				OFFSET -3.136600 1.374050 -0.404650 
				CHANNELS 3 Zrotation Yrotation Xrotation
				JOINT RightForeArm
				{
					OFFSET -5.241900 -0.000000 -0.000000 
					CHANNELS 3 Zrotation Yrotation Xrotation
					JOINT RightHand
					{
						OFFSET -3.444170 -0.000000 -0.000000 
						CHANNELS 3 Zrotation Yrotation Xrotation
						JOINT RightHandIndex1
						{
							OFFSET -0.622530 -0.000000 -0.000000 
							CHANNELS 3 Zrotation Yrotation Xrotation
							End Site
							{
								OFFSET 0.000000 0.000000 0.000000 
							}
						}
					}
				}
			}
		}
	}
}
MOTION
Frames: 12
Frame Time: 0.041667
-35.650181 18.040764 -3.097799 -47.295167 81.758358 -42.048058 -6.792703 0.534203 -22.345669 0.258376 10.743524 29.497949 0.221268 4.684232 12.147146 0.071400 1.724000 4.743500 21.986943 6.437437 1.526511 3.281533 -2.643991 9.288786 6.891376 -24.157756 -14.803858 -0.102500 -2.065000 5.685300 3.567414 -0.260276 7.954352 -0.105244 0.594981 0.141320 4.026784 5.781926 13.797535 0.174400 3.198000 4.408700 -82.694918 12.984531 22.257030 29.314952 -38.974760 -13.195778 0.604555 -1.581068 -2.548995 -7.125000 0.000000 0.000000 69.755836 -12.398522 50.406117 -25.001828 32.670537 -7.463035 0.812352 -0.054628 -0.377864 7.125000 0.000000 0.000000 
-35.639821 18.040661 -3.099543 -47.126892 81.727929 -41.866152 -6.815550 0.597425 -22.359212 0.262947 10.746999 29.506213 0.206653 4.706610 12.041052 0.056600 1.534800 4.221700 21.980885 6.473491 1.552461 3.281371 -2.647346 9.300371 6.892709 -24.168849 -14.842903 -0.101200 -2.051100 5.646800 3.546061 -0.238924 7.930638 -0.127844 0.605501 0.104758 4.146082 5.771644 13.829871 0.218500 3.198300 4.409900 -82.637277 12.967253 22.236370 29.369803 -39.007585 -13.221460 0.588917 -1.593128 -2.532650 -7.125000 0.000000 0.000000 69.768464 -12.416334 50.335060 -24.984058 32.655828 -7.457386 0.814405 -0.058137 -0.313206 7.125000 0.000000 0.000000 
-35.629870 18.041687 -3.103236 -46.774133 81.702079 -41.463993 -6.847010 0.606843 -22.368985 0.262255 10.752651 29.521816 0.219593 4.679336 12.084731 0.072200 1.733700 4.770300 21.916478 6.536247 1.532082 3.280403 -2.656606 9.316215 6.917379 -24.217504 -14.805553 -0.094900 -1.986400 5.468000 3.526786 -0.204254 7.930101 -0.144171 0.623708 0.129596 4.153326 5.706384 13.759671 0.208500 3.165000 4.379700 -82.599608 12.843265 22.233268 29.395568 -39.025757 -13.245766 0.598563 -1.582244 -2.559049 -7.125000 0.000000 0.000000 69.755461 -12.344611 50.217237 -24.970133 32.643376 -7.453094 0.816855 -0.047389 -0.462830 7.125000 0.000000 0.000000 
-35.622074 18.040867 -3.104467 -46.956918 81.707564 -41.631747 -6.844002 0.606982 -22.374172 0.267601 10.756436 29.531253 0.199853 4.721616 12.060277 0.065500 1.651700 4.544000 21.936087 6.521353 1.518931 3.277384 -2.668518 9.349263 6.920673 -24.239242 -14.860826 -0.092600 -1.962300 5.401600 3.539424 -0.195520 7.952550 -0.122508 0.626165 0.137685 4.071009 5.640102 13.752679 0.170900 3.129200 4.398100 -82.578783 12.700748 22.223546 29.442685 -39.037890 -13.254725 0.571507 -1.613034 -2.521094 -7.125000 0.000000 0.000000 69.712352 -12.267826 50.114982 -24.935359 32.611291 -7.438292 0.816133 -0.051410 -0.432925 7.125000 0.000000 0.000000 
-35.614381 18.041790 -3.105595 -46.956476 81.720115 -41.601686 -6.862624 0.592873 -22.378973 0.274350 10.764098 29.548168 0.165630 4.774987 11.862410 0.051700 1.467600 4.036500 21.909819 6.525329 1.483638 3.274335 -2.683906 9.387334 6.923574 -24.243323 -14.874275 -0.091200 -1.947800 5.361400 3.539170 -0.190192 7.931016 -0.106823 0.627289 0.122583 4.056986 5.541482 13.691164 0.148500 3.080200 4.356900 -82.556952 12.657451 22.223605 29.485899 -39.078848 -13.298546 0.590456 -1.588495 -2.590480 -7.125000 0.000000 0.000000 69.700980 -12.267686 50.057567 -24.895629 32.573773 -7.418617 0.813548 -0.060875 -0.291337 7.125000 0.000000 0.000000 
-35.606277 18.041995 -3.107031 -46.939174 81.718596 -41.559566 -6.876728 0.597000 -22.387422 0.279791 10.770765 29.566102 0.151896 4.789607 11.729028 0.043300 1.342300 3.691100 21.895203 6.537143 1.461932 3.271372 -2.698455 9.424064 6.929028 -24.257778 -14.894302 -0.088900 -1.923200 5.293600 3.534043 -0.180848 7.925007 -0.107043 0.631272 0.115937 4.053492 5.468691 13.665439 0.136700 3.044200 4.344500 -82.522687 12.582719 22.227171 29.529714 -39.107737 -13.327315 0.589728 -1.587337 -2.619751 -7.125000 0.000000 0.000000 69.689848 -12.238320 49.967243 -24.875593 32.555559 -7.410347 0.813090 -0.061703 -0.263467 7.125000 0.000000 0.000000 
-35.598481 18.042303 -3.108365 -46.935793 81.719535 -41.533605 -6.889046 0.596844 -22.393099 0.284176 10.776618 29.583116 0.144301 4.789125 11.584642 0.035100 1.208700 3.323400 21.881337 6.545878 1.438005 3.267857 -2.714806 9.465798 6.933384 -24.269156 -14.914400 -0.086800 -1.900500 5.230700 3.527711 -0.174676 7.919113 -0.110927 0.633793 0.108136 4.055121 5.392572 13.641986 0.126800 3.006800 4.332700 -82.484196 12.513569 22.241467 29.573691 -39.137706 -13.356949 0.589550 -1.585637 -2.655391 -7.125000 0.000000 0.000000 69.683491 -12.214460 49.869200 -24.865208 32.546474 -7.406936 0.812279 -0.061405 -0.247257 7.125000 0.000000 0.000000 
-35.590890 18.042405 -3.109288 -46.954841 81.719659 -41.532922 -6.898100 0.597109 -22.398882 0.289296 10.783858 29.605882 0.144907 4.768769 11.432245 0.027500 1.069700 2.940700 21.872507 6.485458 1.399250 3.263802 -2.724994 9.494574 6.921212 -24.226128 -14.886560 -0.084900 -1.879500 5.172700 3.521184 -0.171374 7.914489 -0.118513 0.635086 0.099927 4.063905 5.316013 13.626374 0.120300 2.969600 4.324500 -82.441120 12.450728 22.266851 29.618066 -39.168129 -13.386198 0.588761 -1.584385 -2.694140 -7.125000 0.000000 0.000000 69.683204 -12.198704 49.759509 -24.864674 32.547009 -7.408728 0.811139 -0.061277 -0.229749 7.125000 0.000000 0.000000 
-35.583197 18.042200 -3.110006 -47.050376 81.731647 -41.619723 -6.904897 0.588844 -22.394773 0.294124 10.791626 29.633595 0.157071 4.722690 11.290332 0.021700 0.951200 2.614700 21.871582 6.429882 1.382029 3.260512 -2.731207 9.514629 6.910694 -24.194604 -14.878892 -0.083600 -1.865000 5.132900 3.513508 -0.177158 7.911031 -0.129521 0.632217 0.088240 4.081060 5.240726 13.619074 0.117500 2.933600 4.318800 -82.392023 12.399657 22.305553 29.663368 -39.200544 -13.417004 0.588704 -1.582419 -2.737250 -7.125000 0.000000 0.000000 69.692855 -12.196068 49.631806 -24.878051 32.560927 -7.418090 0.809897 -0.060267 -0.225911 7.125000 0.000000 0.000000 
-35.575503 18.041482 -3.110314 -47.203546 81.752268 -41.773056 -6.909815 0.576486 -22.384280 0.299196 10.800056 29.665898 0.176680 4.661815 11.169280 0.017600 0.857500 2.356900 21.877269 6.377206 1.382543 3.258118 -2.733195 9.525589 6.900785 -24.170728 -14.888404 -0.082800 -1.855800 5.107400 3.505560 -0.188693 7.909384 -0.142652 0.626535 0.074401 4.100488 5.167937 13.622479 0.116400 2.899100 4.318000 -82.336711 12.355165 22.360114 29.706974 -39.231697 -13.445845 0.587484 -1.582019 -2.780085 -7.125000 0.000000 0.000000 69.712117 -12.205881 49.477875 -24.905785 32.588857 -7.435261 0.808376 -0.058560 -0.240680 7.125000 0.000000 0.000000 
-35.567912 18.040354 -3.110314 -47.418128 81.783178 -41.995905 -6.913636 0.557945 -22.367482 0.304527 10.809324 29.702089 0.200551 4.593386 11.073752 0.015100 0.792900 2.179100 21.888263 6.326922 1.398459 3.256195 -2.732059 9.529341 6.893326 -24.158141 -14.911981 -0.082100 -1.847900 5.085500 3.498347 -0.205123 7.908090 -0.155980 0.618441 0.056560 4.119567 5.096778 13.630788 0.115500 2.865800 4.318800 -82.276811 12.318737 22.431822 29.750348 -39.263580 -13.474863 0.586631 -1.581637 -2.821996 -7.125000 0.000000 0.000000 69.744667 -12.228393 49.273793 -24.955218 32.637676 -7.464006 0.806025 -0.052194 -0.321331 7.125000 0.000000 0.000000 
-35.560321 18.038815 -3.110109 -47.688618 81.824119 -42.281426 -6.917672 0.537491 -22.346807 0.309573 10.818503 29.739944 0.229107 4.518113 11.017468 0.014000 0.763700 2.099000 21.904158 6.283155 1.427386 3.254630 -2.729565 9.531283 6.885970 -24.152628 -14.960168 -0.081900 -1.846300 5.081100 3.493421 -0.224908 7.909529 -0.166793 0.608823 0.039861 4.134392 5.027484 13.639929 0.113600 2.833100 4.320300 -82.214232 12.284495 22.519416 29.791107 -39.293899 -13.502181 0.586151 -1.581082 -2.862912 -7.125000 0.000000 0.000000 69.788736 -12.260280 49.017445 -25.035103 32.715840 -7.510188 0.804905 -0.039405 -0.488024 7.125000 0.000000 0.000000 
